<svg xmlns="http://www.w3.org/2000/svg" width="563.2" height="640" viewBox="0 0 563.2 640">
  <path fill="#f44336" stroke="#000" stroke-width="7.11" d="M278.12 567.88c-6.64-5.67-19.36-11.36-44.87-20.04-63.45-21.6-91.18-37.63-124.3-71.82-9.74-10.07-28.73-33.63-32.44-40.28-1.5-2.77-15.4-2.34-20.5.64l-3.9 2.32-8.5-15.66c-28-51.64-35.4-91.84-23.4-127.92 3.84-11.58 3.3-11.37 9.4-3.78 27.6 34.4 79.24 74.35 106.75 82.6l3.98 1.2-4.82 5.9c-22.3 27.4-7.14 58.22 39.46 80.2 36.56 17.23 60.1 14.47 69.2-8.1l2.53-6.3.3-191.6.27-191.64 8.8-1.2c143.47-19.62 214.43 9.98 214.55 89.52.1 65.18-41.43 100.2-121.1 102.1l-24.13.57-.75 95.6c-.8 98.1-.7 101.4 3.3 109.3 8.4 16.6 28.86 17.2 62.1 1.6 46.26-21.7 61.55-52.8 39.35-80l-4.76-5.9 7.05-2.5c29.93-10.64 67.9-40.23 102.72-80.03l7-8 3.24 10.2c11.83 36.92 4.6 76.42-23.47 128.16l-8.53 15.7-3.9-2c-11.02-5.56-18.4-4.36-24.1 3.94-36.98 53.9-74.94 80.47-153.04 107.1-26.35 9-36 13.23-44.16 19.5-5.9 4.5-4.7 4.4-9.2.55zm80.78-374.9c46.12-10.88 45.5-69.17-.82-76.36-7.64-1.18-26.27-.74-31.74.76l-2.4.66v37.56c0 20.66.32 37.88.7 38.28 1.4 1.38 27.5.7 34.26-.9z"/>
</svg>
