<?xml version="1.0" encoding="UTF-8" standalone="no"?>
<svg
   xmlns:dc="http://purl.org/dc/elements/1.1/"
   xmlns:cc="http://creativecommons.org/ns#"
   xmlns:rdf="http://www.w3.org/1999/02/22-rdf-syntax-ns#"
   xmlns:svg="http://www.w3.org/2000/svg"
   xmlns="http://www.w3.org/2000/svg"
   id="svg8"
   version="1.1"
   viewBox="0 0 239.05597 76.427803"
   height="76.427803mm"
   width="239.05597mm">
  <defs
     id="defs2" />
  <metadata
     id="metadata5">
    <rdf:RDF>
      <cc:Work
         rdf:about="">
        <dc:format>image/svg+xml</dc:format>
        <dc:type
           rdf:resource="http://purl.org/dc/dcmitype/StillImage" />
        <dc:title></dc:title>
      </cc:Work>
    </rdf:RDF>
  </metadata>
  <g
     transform="translate(-1.5701467,-119.44985)"
     id="layer1">
    <path
       id="path917"
       d="m 38.531936,194.991 c -0.918784,-0.78535 -2.680675,-1.57233 -6.211058,-2.77428 -8.783784,-2.9905 -12.622788,-5.20886 -17.20572,-9.94226 -1.3497,-1.39401 -3.977642,-4.65517 -4.492165,-5.57457 -0.214652,-0.38356 -2.1404224,-0.32423 -2.8368959,0.0874 l -0.544067,0.32156 -1.175526,-2.16726 c -3.87835,-7.15033 -4.897963,-12.71405 -3.245202,-17.70809 0.530624,-1.60335 0.457648,-1.57398 1.300658,-0.52352 3.823273,4.76408 10.9686329,10.29301 14.7767779,11.43396 l 0.551604,0.16526 -0.666791,0.81865 c -3.088273,3.79156 -0.988856,8.05899 5.461606,11.10166 5.056828,2.3853 8.31434,2.00305 9.574798,-1.12356 l 0.350063,-0.86834 0.03927,-26.5263 0.03927,-26.52631 1.215809,-0.16624 c 19.86223,-2.71584 29.683853,1.38194 29.701018,12.39188 0.01407,9.02232 -5.735626,13.86942 -16.763916,14.13229 l -3.339654,0.0796 -0.105944,13.23371 c -0.10878,13.58781 -0.09519,14.03747 0.457305,15.13141 1.164763,2.30622 3.995035,2.38062 8.596961,0.226 6.402542,-2.99768 8.519831,-7.30377 5.446514,-11.07698 l -0.659609,-0.80982 0.975559,-0.34675 c 4.142519,-1.47237 9.400181,-5.56852 14.219367,-11.07807 l 0.967999,-1.10666 0.452477,1.41254 c 1.636784,5.10971 0.635014,10.57857 -3.249653,17.74053 l -1.179248,2.17411 -0.540347,-0.27347 c -1.52458,-0.77161 -2.546373,-0.60496 -3.334865,0.54392 -5.119715,7.45966 -10.375154,11.13645 -21.18514,14.82145 -3.651834,1.24487 -4.984964,1.83262 -6.117415,2.69704 -0.816285,0.62308 -0.650052,0.61271 -1.273838,0.0795 z m 11.181738,-51.89672 c 6.38514,-1.50542 6.298427,-9.57552 -0.113571,-10.56958 -1.056651,-0.16381 -3.636659,-0.10246 -4.392775,0.10446 l -0.332227,0.0909 v 5.19996 c 0,2.85999 0.0443,5.24427 0.09844,5.29841 0.191358,0.19136 3.80313,0.0967 4.740135,-0.12418 z"
       style="fill:#f44336;fill-opacity:1;stroke:#ffffff;stroke-width:0.98500001;stroke-miterlimit:4;stroke-dasharray:none;stroke-opacity:1" />
    <g
       id="text868"
       style="font-style:normal;font-variant:normal;font-weight:bold;font-stretch:normal;font-size:10.58333302px;line-height:1.25;font-family:Roboto;-inkscape-font-specification:'Roboto Bold';letter-spacing:0px;word-spacing:0px;fill:#f44336;fill-opacity:1;stroke:#f1ffff;stroke-width:0.96499997;stroke-miterlimit:4;stroke-dasharray:none;stroke-opacity:1"
       aria-label="assport">
      <path
         id="path870"
         style="font-style:normal;font-variant:normal;font-weight:bold;font-stretch:normal;font-size:50.79999924px;font-family:Roboto;-inkscape-font-specification:'Roboto Bold';fill:#f44336;fill-opacity:1;stroke:#f1ffff;stroke-width:0.96499997;stroke-miterlimit:4;stroke-dasharray:none;stroke-opacity:1"
         d="m 85.585614,153.36906 q -0.496094,-0.96738 -0.719336,-2.40605 -2.604492,2.90215 -6.77168,2.90215 -3.943945,0 -6.548437,-2.28203 -2.579688,-2.28203 -2.579688,-5.75469 0,-4.26641 3.150196,-6.54844 3.175,-2.28203 9.152929,-2.30683 h 3.299024 v -1.53789 q 0,-1.86036 -0.967383,-2.97657 -0.942578,-1.11621 -3.001367,-1.11621 -1.810743,0 -2.852539,0.86817 -1.016993,0.86816 -1.016993,2.38125 h -7.168554 q 0,-2.33164 1.438672,-4.31602 1.438672,-1.98437 4.067968,-3.10059 2.629297,-1.14101 5.903516,-1.14101 4.960937,0 7.863086,2.50527 2.926953,2.48047 2.926953,6.99492 v 11.6334 q 0.02481,3.81992 1.066601,5.77949 v 0.42168 z m -5.92832,-4.98574 q 1.587499,0 2.926953,-0.69453 1.339453,-0.71933 1.984375,-1.90996 v -4.61367 h -2.678907 q -5.382617,0 -5.729882,3.7207 l -0.02481,0.42168 q 0,1.33945 0.942578,2.20762 0.942578,0.86816 2.579688,0.86816 z" />
      <path
         id="path872"
         style="font-style:normal;font-variant:normal;font-weight:bold;font-stretch:normal;font-size:50.79999924px;font-family:Roboto;-inkscape-font-specification:'Roboto Bold';fill:#f44336;fill-opacity:1;stroke:#f1ffff;stroke-width:0.96499997;stroke-miterlimit:4;stroke-dasharray:none;stroke-opacity:1"
         d="m 111.85378,145.95246 q 0,-1.31465 -1.31465,-2.05879 -1.28984,-0.76894 -4.16719,-1.36425 -9.574607,-2.00918 -9.574607,-8.13594 0,-3.57188 2.951757,-5.95313 2.97656,-2.40605 7.76387,-2.40605 5.10976,0 8.16074,2.40605 3.07578,2.40606 3.07578,6.25078 h -7.16855 q 0,-1.53789 -0.99219,-2.53007 -0.99219,-1.017 -3.10059,-1.017 -1.81074,0 -2.80293,0.81856 -0.99218,0.81855 -0.99218,2.08359 0,1.19063 1.11621,1.93477 1.14101,0.71933 3.81992,1.26504 2.6789,0.5209 4.51445,1.19062 5.68027,2.0836 5.68027,7.21817 0,3.67109 -3.15019,5.95312 -3.1502,2.25723 -8.13594,2.25723 -3.37344,0 -6.00273,-1.19063 -2.604494,-1.21543 -4.092775,-3.29902 -1.488282,-2.1084 -1.488282,-4.53926 h 6.796487 q 0.0992,1.90996 1.41386,2.92696 1.31465,1.01699 3.52227,1.01699 2.05879,0 3.10059,-0.76895 1.0666,-0.79375 1.0666,-2.05879 z" />
      <path
         id="path874"
         style="font-style:normal;font-variant:normal;font-weight:bold;font-stretch:normal;font-size:50.79999924px;font-family:Roboto;-inkscape-font-specification:'Roboto Bold';fill:#f44336;fill-opacity:1;stroke:#f1ffff;stroke-width:0.96499997;stroke-miterlimit:4;stroke-dasharray:none;stroke-opacity:1"
         d="m 137.94831,145.95246 q 0,-1.31465 -1.31465,-2.05879 -1.28985,-0.76894 -4.16719,-1.36425 -9.57461,-2.00918 -9.57461,-8.13594 0,-3.57188 2.95176,-5.95313 2.97656,-2.40605 7.76387,-2.40605 5.10976,0 8.16074,2.40605 3.07578,2.40606 3.07578,6.25078 h -7.16856 q 0,-1.53789 -0.99218,-2.53007 -0.99219,-1.017 -3.10059,-1.017 -1.81074,0 -2.80293,0.81856 -0.99219,0.81855 -0.99219,2.08359 0,1.19063 1.11621,1.93477 1.14102,0.71933 3.81993,1.26504 2.6789,0.5209 4.51445,1.19062 5.68027,2.0836 5.68027,7.21817 0,3.67109 -3.15019,5.95312 -3.1502,2.25723 -8.13594,2.25723 -3.37344,0 -6.00273,-1.19063 -2.6045,-1.21543 -4.09278,-3.29902 -1.48828,-2.1084 -1.48828,-4.53926 h 6.79649 q 0.0992,1.90996 1.41386,2.92696 1.31465,1.01699 3.52227,1.01699 2.05879,0 3.10058,-0.76895 1.06661,-0.79375 1.06661,-2.05879 z" />
      <path
         id="path876"
         style="font-style:normal;font-variant:normal;font-weight:bold;font-stretch:normal;font-size:50.79999924px;font-family:Roboto;-inkscape-font-specification:'Roboto Bold';fill:#f44336;fill-opacity:1;stroke:#f1ffff;stroke-width:0.96499997;stroke-miterlimit:4;stroke-dasharray:none;stroke-opacity:1"
         d="m 173.66705,140.19778 q 0,6.20117 -2.82773,9.94668 -2.80293,3.7207 -7.59024,3.7207 -4.06796,0 -6.57324,-2.82774 v 12.65039 h -7.16855 v -37.15742 h 6.64765 l 0.24805,2.6293 q 2.60449,-3.12539 6.79648,-3.12539 4.96094,0 7.71426,3.67109 2.75332,3.6711 2.75332,10.12032 z m -7.16855,-0.5209 q 0,-3.74551 -1.33945,-5.7795 -1.31465,-2.03398 -3.84473,-2.03398 -3.37344,0 -4.63848,2.57969 v 10.98847 q 1.31465,2.65411 4.68809,2.65411 5.13457,0 5.13457,-8.40879 z" />
      <path
         id="path878"
         style="font-style:normal;font-variant:normal;font-weight:bold;font-stretch:normal;font-size:50.79999924px;font-family:Roboto;-inkscape-font-specification:'Roboto Bold';fill:#f44336;fill-opacity:1;stroke:#f1ffff;stroke-width:0.96499997;stroke-miterlimit:4;stroke-dasharray:none;stroke-opacity:1"
         d="m 176.96608,139.70168 q 0,-3.99355 1.53789,-7.11894 1.53789,-3.12539 4.41524,-4.83692 2.90214,-1.71152 6.72207,-1.71152 5.43222,0 8.85527,3.32383 3.44785,3.32383 3.84473,9.0289 l 0.0496,1.83555 q 0,6.17637 -3.44786,9.92188 -3.44785,3.7207 -9.25214,3.7207 -5.8043,0 -9.27696,-3.7207 -3.44785,-3.72071 -3.44785,-10.12032 z m 7.16856,0.5209 q 0,3.81992 1.43867,5.85391 1.43867,2.00918 4.11758,2.00918 2.60449,0 4.06796,-1.98438 1.46348,-2.00918 1.46348,-6.39961 0,-3.74551 -1.46348,-5.8043 -1.46347,-2.05878 -4.11757,-2.05878 -2.6293,0 -4.06797,2.05878 -1.43867,2.03399 -1.43867,6.3252 z" />
      <path
         id="path880"
         style="font-style:normal;font-variant:normal;font-weight:bold;font-stretch:normal;font-size:50.79999924px;font-family:Roboto;-inkscape-font-specification:'Roboto Bold';fill:#f44336;fill-opacity:1;stroke:#f1ffff;stroke-width:0.96499997;stroke-miterlimit:4;stroke-dasharray:none;stroke-opacity:1"
         d="m 221.93697,133.25246 q -1.46347,-0.19843 -2.57969,-0.19843 -4.06796,0 -5.333,2.75332 v 17.56171 h -7.16856 v -26.83867 h 6.77168 l 0.19844,3.19981 q 2.15801,-3.6959 5.97793,-3.6959 1.19062,0 2.23242,0.32246 z" />
      <path
         id="path882"
         style="font-style:normal;font-variant:normal;font-weight:bold;font-stretch:normal;font-size:50.79999924px;font-family:Roboto;-inkscape-font-specification:'Roboto Bold';fill:#f44336;fill-opacity:1;stroke:#f1ffff;stroke-width:0.96499997;stroke-miterlimit:4;stroke-dasharray:none;stroke-opacity:1"
         d="m 235.28189,119.93235 v 6.59804 h 4.58887 v 5.2586 h -4.58887 v 13.39453 q 0,1.48828 0.57051,2.1332 0.57051,0.64492 2.18281,0.64492 1.19063,0 2.1084,-0.17363 v 5.43223 q -2.1084,0.64492 -4.34082,0.64492 -7.54062,0 -7.68945,-7.61504 v -14.46113 h -3.91914 v -5.2586 h 3.91914 v -6.59804 z" />
    </g>
  </g>
</svg>
