<svg xmlns="http://www.w3.org/2000/svg" viewBox="0 0 239.056 76.4278">
  <g fill="#f44336">
    <path stroke="#fff" stroke-width=".985" d="M36.9618 75.5412c-.9188-.7854-2.6807-1.5724-6.211-2.7743-8.784-2.991-12.623-5.209-17.2058-9.943-1.3497-1.394-3.9776-4.655-4.4922-5.575-.2146-.384-2.1404-.325-2.8368.087l-.544.321-1.1756-2.167C.618 48.341-.4016 42.777 1.2512 37.783c.5306-1.6033.4576-1.574 1.3006-.5235 3.8233 4.7642 10.9686 10.293 14.7768 11.434l.5516.1654-.6668.819c-3.0883 3.791-.989 8.059 5.4616 11.101 5.0568 2.385 8.3144 2.003 9.5748-1.124l.35-.868.0393-26.527.04-26.527 1.216-.166C53.758 2.852 63.579 6.95 63.596 17.96c.014 9.022-5.735 13.8693-16.764 14.132l-3.339.08-.106 13.2338c-.109 13.588-.095 14.0375.458 15.1314 1.165 2.306 3.995 2.3803 8.597.226 6.4026-2.998 8.52-7.304 5.4466-11.077l-.6596-.81.9752-.3468c4.1425-1.4724 9.4-5.5686 14.2193-11.078l.968-1.1068.4524 1.4123c1.636 5.11.635 10.579-3.25 17.741l-1.18 2.174-.541-.274c-1.525-.772-2.546-.605-3.335.544-5.1208 7.459-10.376 11.136-21.186 14.821-3.652 1.245-4.985 1.832-6.1178 2.697-.8163.623-.65.612-1.274.079zm11.1817-51.8968c6.3852-1.5054 6.2985-9.5755-.1135-10.5695-1.0567-.164-3.6367-.103-4.3928.104l-.3322.091v5.2c0 2.86.0443 5.244.0984 5.298.1914.191 3.803.096 4.74-.124z"/>
    <path stroke="#f1ffff" stroke-width=".965" d="M84.0155 33.9192q-.496-.9674-.7194-2.406-2.604 2.902-6.771 2.902-3.944 0-6.548-2.282-2.579-2.282-2.579-5.7546 0-4.2664 3.15-6.5485 3.175-2.282 9.153-2.306H83v-1.538q0-1.86-.9674-2.976-.9425-1.116-3.0013-1.116-1.8107 0-2.8525.868-1.017.868-1.017 2.382h-7.169q0-2.331 1.4388-4.316 1.4384-1.985 4.0677-3.101 2.6293-1.141 5.9035-1.141 4.961 0 7.863 2.505 2.927 2.481 2.927 6.995v11.633q.025 3.82 1.067 5.78v.422zm-5.9284-4.9857q1.588 0 2.927-.6946 1.34-.72 1.985-1.91v-4.614H80.32q-5.3826 0-5.73 3.72l-.025.421q0 1.339.9427 2.207.9425.868 2.5796.868zm32.197-2.431q0-1.3145-1.314-2.0587-1.29-.769-4.167-1.3642-9.574-2.0092-9.574-8.136 0-3.5718 2.952-5.953 2.977-2.406 7.764-2.406 5.11 0 8.161 2.406 3.076 2.406 3.076 6.2507h-7.168q0-1.538-.992-2.53-.992-1.017-3.1-1.017-1.811 0-2.803.8185t-.992 2.0836q0 1.1906 1.116 1.9347 1.141.72 3.82 1.266 2.679.521 4.514 1.191 5.68 2.084 5.68 7.218 0 3.671-3.15 5.953-3.15 2.258-8.136 2.258-3.3732 0-6.003-1.19-2.604-1.215-4.093-3.299-1.488-2.108-1.488-4.539h6.7968q.0996 1.91 1.414 2.927 1.315 1.017 3.522 1.017 2.059 0 3.101-.769 1.0667-.793 1.0667-2.059zm26.095 0q0-1.3145-1.314-2.0587-1.29-.769-4.167-1.3642-9.574-2.0092-9.574-8.136 0-3.5718 2.952-5.953 2.977-2.406 7.764-2.406 5.11 0 8.161 2.406 3.076 2.406 3.076 6.2507h-7.168q0-1.538-.992-2.53-.992-1.017-3.1-1.017-1.8104 0-2.803.8185-.992.8185-.992 2.0836 0 1.1906 1.116 1.9347 1.141.72 3.82 1.266 2.679.521 4.5148 1.191 5.68 2.084 5.68 7.218 0 3.671-3.15 5.953-3.15 2.258-8.136 2.258-3.3734 0-6.0027-1.19-2.6047-1.215-4.093-3.299-1.4883-2.108-1.4883-4.539h6.796q.099 1.91 1.414 2.927 1.3145 1.017 3.522 1.017 2.059 0 3.1007-.769 1.0664-.793 1.0664-2.059zm35.719-5.7545q0 6.201-2.827 9.9466-2.803 3.7207-7.59 3.7207-4.068 0-6.573-2.8277V44.238h-7.168V7.0805h6.648l.248 2.6293q2.605-3.1253 6.797-3.1253 4.961 0 7.7146 3.671 2.753 3.671 2.753 10.1204zm-7.168-.521q0-3.7455-1.339-5.7795-1.315-2.034-3.845-2.034-3.373 0-4.638 2.5797v10.9885q1.315 2.654 4.688 2.654 5.135 0 5.135-8.4087zm10.468.0248q0-3.9935 1.538-7.119 1.538-3.1253 4.415-4.8368 2.903-1.7115 6.722-1.7115 5.433 0 8.856 3.3238 3.448 3.3238 3.845 9.029l.05 1.8354q0 6.1764-3.448 9.922-3.448 3.7206-9.252 3.7206t-9.277-3.7207q-3.448-3.7207-3.448-10.1203zm7.169.521q0 3.82 1.439 5.8538 1.439 2.0092 4.118 2.0092 2.605 0 4.068-1.9844 1.464-2.009 1.464-6.3996 0-3.7455-1.464-5.8043-1.463-2.0587-4.117-2.0587-2.629 0-4.068 2.0587-1.4382 2.034-1.4382 6.3252zm37.803-6.9702q-1.463-.1984-2.58-.1984-4.067 0-5.333 2.7533v17.5617h-7.168V7.0805h6.772l.199 3.2q2.158-3.696 5.978-3.696 1.191 0 2.2328.3224zm13.345-13.32v6.598h4.589v5.2585h-4.589v13.395q0 1.489.57 2.134.571.645 2.183.645 1.191 0 2.109-.173v5.432q-2.108.645-4.341.645-7.54 0-7.689-7.615V12.339h-3.919V7.0806h3.919V.4826z" style="-inkscape-font-specification:'Roboto Bold'" font-weight="bold" font-size="50.8" font-family="Roboto" letter-spacing="0" word-spacing="0"/>
  </g>
</svg>
